<svg xmlns="http://www.w3.org/2000/svg" xmlns:xlink="http://www.w3.org/1999/xlink" width="24" height="18" viewBox="0 0 24 18">
  <defs>
    <style>
      .cls-1 {
        fill: #0fb297;
        fill-rule: evenodd;
        filter: url(#filter);
      }
    </style>
    <filter id="filter" x="19" y="300" width="24" height="18" filterUnits="userSpaceOnUse">
      <feFlood result="flood" flood-color="#eee"/>
      <feComposite result="composite" operator="in" in2="SourceGraphic"/>
      <feBlend result="blend" in2="SourceGraphic"/>
    </filter>
  </defs>
  <path id="ICON_pedidos_hover.svg" class="cls-1" d="M38.5,300a4.5,4.5,0,1,0,4.5,4.5A4.5,4.5,0,0,0,38.5,300ZM38,307v-2H36v-1h2v-2l3,2.5Zm-11.248-2-0.564-2h5.993A6.45,6.45,0,0,0,32,304.5l0.025,0.5H26.752ZM33,316.5a1.5,1.5,0,1,0,1.5-1.5A1.5,1.5,0,0,0,33,316.5ZM19,300l0.743,2h1.929l3.474,12H38.385l1.307-3.114A6.509,6.509,0,0,1,38.5,311a6.589,6.589,0,0,1-.99-0.083L37.055,312H26.627L23.2,300H19Zm9,16.5a1.5,1.5,0,1,0,1.5-1.5A1.5,1.5,0,0,0,28,316.5Z" transform="translate(-19 -300)"/>
</svg>
