<svg xmlns="http://www.w3.org/2000/svg" xmlns:xlink="http://www.w3.org/1999/xlink" width="24" height="24" viewBox="0 0 24 24">
  <defs>
    <style>
      .cls-1 {
        fill: #0fb297;
        fill-rule: evenodd;
        filter: url(#filter);
      }
    </style>
    <filter id="filter" x="19" y="238" width="24" height="24" filterUnits="userSpaceOnUse">
      <feFlood result="flood" flood-color="#eee"/>
      <feComposite result="composite" operator="in" in2="SourceGraphic"/>
      <feBlend result="blend" in2="SourceGraphic"/>
    </filter>
  </defs>
  <path id="ICON_perfil_hover.svg" class="cls-1" d="M39.822,256.1c-3.439-.794-6.641-1.49-5.09-4.418C39.451,242.766,35.983,238,31,238c-5.082,0-8.465,4.949-3.732,13.678,1.6,2.945-1.725,3.641-5.09,4.418C19.2,256.784,19,258.239,19,260.759L19,262h2c0-3.134-.125-3.55,1.838-4,2.851-.657,5.543-1.278,6.525-3.456a4.144,4.144,0,0,0-.338-3.815c-2.058-3.8-2.578-7.089-1.423-9.026,1.354-2.275,5.426-2.264,6.767-.034,1.15,1.911.639,5.219-1.4,9.076a4.173,4.173,0,0,0-.31,3.814c0.99,2.167,3.707,2.794,6.584,3.458C41.119,258.45,41,258.9,41,262h2L43,260.759C43,258.239,42.8,256.784,39.822,256.1Z" transform="translate(-19 -238)"/>
</svg>
