<svg xmlns="http://www.w3.org/2000/svg" width="24" height="24" viewBox="0 0 24 24">
  <defs>
    <style>
      .cls-1 {
        fill: #0fb297;
        fill-rule: evenodd;
      }
    </style>
  </defs>
  <path id="ICON_debitos.svg" class="cls-1" d="M35,549.083c0-2.145-2.232-2.742-3.943-3.546-1.039-.54-0.908-1.829.581-1.916a6.4,6.4,0,0,1,2.443.465l0.362-1.647A9.219,9.219,0,0,0,32,542.018V541H31v1.067c-1.945.267-2.984,1.487-2.984,2.85,0,2.438,2.847,2.81,3.778,3.243,1.27,0.568,1.035,1.75-.114,2.011a6.085,6.085,0,0,1-3.225-.54L28,551.275A6.935,6.935,0,0,0,31,552v1h1v-1.053C33.657,551.715,35,550.8,35,549.083ZM31,535a12,12,0,1,0,12,12A12,12,0,0,0,31,535Z" transform="translate(-19 -535)"/>
</svg>
