<svg id="LOGO_COLORIDA.svg" xmlns="http://www.w3.org/2000/svg" width="114.97" height="30" viewBox="0 0 114.97 30">
  <defs>
    <style>
      .cls-1 {
        fill: #161616;
      }

      .cls-1, .cls-2 {
        fill-rule: evenodd;
      }

      .cls-2 {
        fill: #00ad90;
      }
    </style>
  </defs>
  <path id="logo" class="cls-1" d="M5311.29,2151.65v8.97h5.57v0.71h-6.33v-9.68h0.76Zm9.51,9.68v-9.68h0.75v9.68h-0.75Zm6.41-9.68v8.97h5.57v0.71h-6.33v-9.68h0.76Zm9.52,9.68v-9.68h0.74v9.68h-0.74Zm12.28,0.01v-3.91h-4.86v3.91h-1.87v-9.67h1.87v4.07h4.86v-4.07h1.85v9.67h-1.85Zm16.03-4.8a5.081,5.081,0,0,1-10.16.02A5.08,5.08,0,1,1,5365.04,2156.54Zm-8.32.05a3.241,3.241,0,1,0,6.48-.02A3.247,3.247,0,1,0,5356.72,2156.59Zm20.97-2.27-3.22,4.2h-0.37l-3.15-4.21v7.03h-1.87v-9.67h2.15l3.1,4.16,3.09-4.16h2.13v9.67h-1.86v-7.02Zm13.79,7.01h-7.4v-9.68h7.4v1.77h-5.55v2.23h5.35v1.7h-5.35v2.18h5.55v1.8Z" transform="translate(-5276.5 -2141.5)"/>
  <path id="logo_copy" data-name="logo copy" class="cls-2" d="M5302.37,2147.84l-10.54-5.97a3.58,3.58,0,0,0-3.19,0l-10.54,5.97a3.383,3.383,0,0,0-1.59,2.7v11.93a3.4,3.4,0,0,0,1.59,2.7l10.54,5.97a3.623,3.623,0,0,0,3.19,0l10.54-5.97a3.4,3.4,0,0,0,1.59-2.7v-11.93A3.383,3.383,0,0,0,5302.37,2147.84Zm0.74,14.63a2.555,2.555,0,0,1-1.17,1.98l-10.54,5.96a2.648,2.648,0,0,1-2.33,0l-10.54-5.96a2.582,2.582,0,0,1-1.17-1.98v-11.93a2.566,2.566,0,0,1,1.17-1.98l10.54-5.97a2.435,2.435,0,0,1,1.17-.27,2.4,2.4,0,0,1,1.16.27l10.54,5.97a2.539,2.539,0,0,1,1.17,1.98v11.93Zm-17.91.24a0.435,0.435,0,0,1-.42.41h-0.51v0.75h4.19v-4.67h-3.26v3.51Zm1.16-2.75h0.75v2.83h-0.75v-2.83Zm5.7-2.16h-3.6v-8.77h-4.19v0.74h0.51a0.436,0.436,0,0,1,.42.42v7.61h-0.81v0.74h7.67v5.33h4.2v-0.75h-0.51a0.435,0.435,0,0,1-.42-0.41v-4.17h0.81v-0.74h-0.81v-7.61a0.436,0.436,0,0,1,.42-0.42h0.51v-0.74h-4.2v8.77Zm-4.95-.45h-0.75v-7.08h0.75v7.08Zm6.19-7.08h0.76v12.52h-0.76v-12.52Z" transform="translate(-5276.5 -2141.5)"/>
</svg>
