<svg id="LOGO_BRANCO.svg" xmlns="http://www.w3.org/2000/svg" width="300" height="78.59" viewBox="0 0 300 78.59">
  <defs>
    <style>
      .cls-1 {
        fill: #fff;
        fill-rule: evenodd;
      }
    </style>
  </defs>
  <path id="LOGO_BRANCO" class="cls-1" d="M3558.74,2445.31v23.48h14.53v1.85h-16.52v-25.33h1.99Zm24.83,25.33v-25.33h1.95v25.33h-1.95Zm16.72-25.33v23.48h14.53v1.85H3598.3v-25.33h1.99Zm24.83,25.33v-25.33h1.95v25.33h-1.95Zm32.05,0.03v-10.24h-12.68v10.24h-4.87v-25.33h4.87v10.68h12.68v-10.68H3662v25.33h-4.83Zm41.83-12.55c-0.07,6.55-4.17,13.1-13.23,13.1s-13.28-6.41-13.28-13.07,4.35-13.35,13.28-13.35C3694.65,2444.8,3699.07,2451.49,3699,2458.12Zm-21.71.11c0.11,4.16,2.39,8.61,8.48,8.61s8.37-4.49,8.44-8.65c0.07-4.27-2.36-9.05-8.44-9.05S3677.18,2453.96,3677.29,2458.23Zm54.72-5.94-8.41,11h-0.96l-8.22-11.04v18.42h-4.87v-25.33h5.61l8.07,10.9,8.07-10.9h5.57v25.33h-4.86v-18.38Zm35.99,18.35h-19.32v-25.33H3768v4.63h-14.49v5.82h13.97v4.45h-13.97v5.72H3768v4.71Z" transform="translate(-3468 -2418.72)"/>
  <path id="logo_copy" data-name="logo copy" class="cls-1" d="M3535.46,2435.32l-27.51-15.62a9.132,9.132,0,0,0-8.3,0l-27.51,15.62a8.854,8.854,0,0,0-4.15,7.07v31.24a8.869,8.869,0,0,0,4.15,7.07l27.51,15.62a9.193,9.193,0,0,0,8.3,0l27.51-15.62a8.869,8.869,0,0,0,4.15-7.07v-31.24A8.854,8.854,0,0,0,3535.46,2435.32Zm1.93,38.31a6.689,6.689,0,0,1-3.04,5.18l-27.51,15.62a6.907,6.907,0,0,1-6.08,0l-27.51-15.62a6.689,6.689,0,0,1-3.04-5.18v-31.24a6.707,6.707,0,0,1,3.04-5.19l27.51-15.62a6.951,6.951,0,0,1,6.08,0l27.51,15.62a6.707,6.707,0,0,1,3.04,5.19v31.24Zm-46.73.62a1.125,1.125,0,0,1-1.09,1.08h-1.33v1.96h10.94v-12.22h-8.51Zm3.02-7.19h1.96v7.41h-1.96v-7.41Zm14.89-5.66h-9.39v-22.97h-10.94v1.96h1.33a1.125,1.125,0,0,1,1.09,1.08v19.93h-2.12v1.95h20.03v13.94h10.94v-1.96h-1.33a1.125,1.125,0,0,1-1.09-1.08v-10.9h2.12v-1.95h-2.12v-19.93a1.125,1.125,0,0,1,1.09-1.08h1.33v-1.96h-10.94v22.97Zm-12.93-1.17h-1.96v-18.54h1.96v18.54Zm16.17-18.54h1.96v32.78h-1.96v-32.78Z" transform="translate(-3468 -2418.72)"/>
</svg>
