<svg xmlns="http://www.w3.org/2000/svg" width="24" height="24" viewBox="0 0 24 24">
  <defs>
    <style>
      .cls-1 {
        fill: #0fb297;
        fill-rule: evenodd;
      }
    </style>
  </defs>
  <path id="ICON_debitos.svg" class="cls-1" d="M746,2649a12,12,0,1,0,12,12A12,12,0,0,0,746,2649Zm4,14.08c0-2.14-2.232-2.74-3.943-3.54-1.038-.54-0.908-1.83.582-1.92a6.4,6.4,0,0,1,2.442.47l0.363-1.65a9.107,9.107,0,0,0-2.444-.42V2655h-1v1.07c-1.945.26-2.984,1.48-2.984,2.85,0,2.43,2.847,2.81,3.778,3.24,1.271,0.57,1.035,1.75-.114,2.01a6.061,6.061,0,0,1-3.224-.54L743,2665.27a6.84,6.84,0,0,0,3,.73v1h1v-1.05C748.657,2665.71,750,2664.8,750,2663.08Z" transform="translate(-734 -2649)"/>
</svg>
