<svg xmlns="http://www.w3.org/2000/svg" width="24" height="24" viewBox="0 0 24 24">
  <defs>
    <style>
      .cls-1 {
        fill: #eee;
        fill-rule: evenodd;
      }
    </style>
  </defs>
  <path id="ICON_debitos_hover.svg" class="cls-1" d="M1062,2649a12,12,0,1,0,12,12A12,12,0,0,0,1062,2649Zm4,14.08c0-2.14-2.23-2.74-3.94-3.54-1.04-.54-0.91-1.83.58-1.92a6.419,6.419,0,0,1,2.44.47l0.36-1.65a9.055,9.055,0,0,0-2.44-.42V2655h-1v1.07c-1.95.26-2.99,1.48-2.99,2.85,0,2.43,2.85,2.81,3.78,3.24,1.27,0.57,1.04,1.75-.11,2.01a6.085,6.085,0,0,1-3.23-.54l-0.45,1.64a6.81,6.81,0,0,0,3,.73v1h1v-1.05C1064.66,2665.71,1066,2664.8,1066,2663.08Z" transform="translate(-1050 -2649)"/>
</svg>
