<svg xmlns="http://www.w3.org/2000/svg" width="24" height="24" viewBox="0 0 24 24">
  <defs>
    <style>
      .cls-1 {
        fill: #0fb297;
        fill-rule: evenodd;
      }
    </style>
  </defs>
  <path id="ICON_perfil.svg" class="cls-1" d="M754.821,2367.1c-3.439-.8-6.641-1.49-5.089-4.42,4.718-8.91,1.25-13.68-3.733-13.68-5.082,0-8.465,4.95-3.732,13.68,1.6,2.94-1.725,3.64-5.091,4.42-2.978.68-3.177,2.14-3.177,4.66l0,1.24h2c0-3.13-.126-3.55,1.838-4,2.851-.66,5.543-1.28,6.525-3.46a4.133,4.133,0,0,0-.338-3.81c-2.058-3.8-2.578-7.09-1.422-9.03,1.352-2.28,5.425-2.26,6.766-.03,1.15,1.91.638,5.21-1.4,9.07a4.189,4.189,0,0,0-.309,3.82c0.99,2.16,3.707,2.79,6.583,3.45,1.88,0.44,1.761.89,1.761,3.99h2l0.006-1.24C758,2369.24,757.8,2367.78,754.821,2367.1Z" transform="translate(-734 -2349)"/>
</svg>
