<svg xmlns="http://www.w3.org/2000/svg" width="20" height="24" viewBox="0 0 20 24">
  <defs>
    <style>
      .cls-1 {
        fill: #eee;
        fill-rule: evenodd;
      }
    </style>
  </defs>
  <path id="ICON_notification_hover.svg" class="cls-1" d="M1065,2612a3.063,3.063,0,0,1-2.97,3,3.117,3.117,0,0,1-3.03-3h6Zm0.14-17.06a2.066,2.066,0,0,1-1.04-1.82h0a2.1,2.1,0,1,0-4.2,0h0a2.075,2.075,0,0,1-1.04,1.82c-4.67,2.71-1.98,11.72-6.86,13.31V2610h20v-1.75C1067.12,2606.66,1069.81,2597.65,1065.14,2594.94ZM1062,2592a1,1,0,1,1-1,1A1,1,0,0,1,1062,2592Zm-6.45,16a14.62,14.62,0,0,0,1.96-5.82c0.45-2.39.87-4.64,2.36-5.5a4.147,4.147,0,0,1,4.26,0c1.49,0.86,1.91,3.11,2.36,5.5a14.62,14.62,0,0,0,1.96,5.82h-12.9Z" transform="translate(-1052 -2591)"/>
</svg>
