<svg xmlns="http://www.w3.org/2000/svg" width="24" height="24" viewBox="0 0 24 24">
  <defs>
    <style>
      .cls-1 {
        fill: #eee;
        fill-rule: evenodd;
      }
    </style>
  </defs>
  <path id="ICON_perfil_hover.svg" class="cls-1" d="M1070.82,2367.1c-3.44-.8-6.64-1.49-5.09-4.42,4.72-8.91,1.25-13.68-3.73-13.68-5.08,0-8.47,4.95-3.73,13.68,1.59,2.94-1.73,3.64-5.09,4.42-2.98.68-3.18,2.14-3.18,4.66V2373h2c0-3.13-.13-3.55,1.84-4,2.85-.66,5.54-1.28,6.52-3.46a4.132,4.132,0,0,0-.34-3.81c-2.05-3.8-2.57-7.09-1.42-9.03,1.36-2.28,5.43-2.26,6.77-.03,1.15,1.91.64,5.21-1.4,9.07a4.2,4.2,0,0,0-.32,3.82c0.99,2.16,3.71,2.79,6.59,3.45,1.88,0.44,1.76.89,1.76,3.99h1.99l0.01-1.24C1074,2369.24,1073.8,2367.78,1070.82,2367.1Z" transform="translate(-1050 -2349)"/>
</svg>
