<svg xmlns="http://www.w3.org/2000/svg" width="24" height="18" viewBox="0 0 24 18">
  <defs>
    <style>
      .cls-1 {
        fill: #eee;
        fill-rule: evenodd;
      }
    </style>
  </defs>
  <path id="ICON_pedidos_hover.svg" class="cls-1" d="M1069.5,2411a4.5,4.5,0,1,0,4.5,4.5A4.494,4.494,0,0,0,1069.5,2411Zm-0.5,7v-2h-2v-1h2v-2l3,2.5Zm-11.25-2-0.56-2h5.99a6.7,6.7,0,0,0-.18,1.5l0.02,0.5h-5.27Zm6.25,11.5a1.5,1.5,0,1,0,1.5-1.5A1.5,1.5,0,0,0,1064,2427.5Zm-14-16.5,0.74,2h1.93l3.48,12h13.23l1.31-3.11a6.667,6.667,0,0,1-1.19.11,6.4,6.4,0,0,1-.99-0.08l-0.46,1.08h-10.42l-3.44-12H1050Zm9,16.5a1.5,1.5,0,1,0,1.5-1.5A1.5,1.5,0,0,0,1059,2427.5Z" transform="translate(-1050 -2411)"/>
</svg>
