<svg xmlns="http://www.w3.org/2000/svg" width="20" height="24" viewBox="0 0 20 24">
  <defs>
    <style>
      .cls-1 {
        fill: #0fb297;
        fill-rule: evenodd;
      }
    </style>
  </defs>
  <path id="ICON_notification.svg" class="cls-1" d="M749,2612a3.065,3.065,0,0,1-2.971,3,3.117,3.117,0,0,1-3.03-3h6Zm0.136-17.06a2.1,2.1,0,0,1-1.04-1.82h0a2.1,2.1,0,1,0-4.194,0h0a2.085,2.085,0,0,1-1.04,1.82c-4.669,2.71-1.986,11.72-6.863,13.31V2610h20v-1.75C751.122,2606.66,753.806,2597.65,749.136,2594.94ZM746,2592a1,1,0,1,1-1,1A1,1,0,0,1,746,2592Zm-6.45,16a14.625,14.625,0,0,0,1.963-5.82c0.447-2.39.869-4.64,2.355-5.5a4.16,4.16,0,0,1,4.267,0c1.484,0.86,1.906,3.11,2.353,5.5a14.628,14.628,0,0,0,1.965,5.82h-12.9Z" transform="translate(-736 -2591)"/>
</svg>
