<svg xmlns="http://www.w3.org/2000/svg" width="24" height="18" viewBox="0 0 24 18">
  <defs>
    <style>
      .cls-1 {
        fill: #0fb297;
        fill-rule: evenodd;
      }
    </style>
  </defs>
  <path id="ICON_pedidos.svg" class="cls-1" d="M753.5,2411a4.5,4.5,0,1,0,4.5,4.5A4.5,4.5,0,0,0,753.5,2411Zm-0.5,7v-2h-2v-1h2v-2l3,2.5Zm-11.248-2-0.564-2h5.992a6.471,6.471,0,0,0-.181,1.5l0.026,0.5h-5.273ZM748,2427.5a1.5,1.5,0,1,0,1.5-1.5A1.5,1.5,0,0,0,748,2427.5ZM734,2411l0.744,2h1.928l3.474,12h13.239l1.307-3.11a6.681,6.681,0,0,1-1.192.11,6.472,6.472,0,0,1-.99-0.08l-0.455,1.08H741.626l-3.432-12H734Zm9,16.5a1.5,1.5,0,1,0,1.5-1.5A1.5,1.5,0,0,0,743,2427.5Z" transform="translate(-734 -2411)"/>
</svg>
