<svg xmlns="http://www.w3.org/2000/svg" width="17" height="17" viewBox="0 0 17 17">
  <defs>
    <style>
      .cls-1 {
        fill: #646464;
        fill-rule: evenodd;
      }
    </style>
  </defs>
  <path id="ICON_calendar.svg" class="cls-1" d="M14384.2,2403.17h-2.9v-2.84h2.9v2.84Zm-4.3-7.09h-2.8v2.84h2.8v-2.84Zm4.3,0h-2.9v2.84h2.9v-2.84Zm-8.5,4.25h-2.9v2.84h2.9v-2.84Zm4.2,0h-2.8v2.84h2.8v-2.84Zm-4.2-4.25h-2.9v2.84h2.9v-2.84Zm11.3-5.66V2406h-17v-15.58h2.1v0.7a1.455,1.455,0,0,0,1.4,1.42,1.476,1.476,0,0,0,1.5-1.42v-0.7h7v0.7a1.476,1.476,0,0,0,1.5,1.42,1.455,1.455,0,0,0,1.4-1.42v-0.7h2.1Zm-1.4,4.25h-14.2v9.91h14.2v-9.91Zm-1.4-4.96a0.77,0.77,0,0,0-.7-0.71,0.789,0.789,0,0,0-.8.71v1.41a0.781,0.781,0,0,0,.8.71,0.761,0.761,0,0,0,.7-0.71v-1.41Zm-10,1.41a0.7,0.7,0,1,1-1.4,0v-1.41a0.7,0.7,0,1,1,1.4,0v1.41Z" transform="translate(-14370 -2389)"/>
</svg>
